<?xml version="1.0" encoding="utf-8"?>
<!-- Generator: Adobe Illustrator 21.0.0, SVG Export Plug-In . SVG Version: 6.00 Build 0)  -->
<svg version="1.1" id="Layer_1" xmlns="http://www.w3.org/2000/svg" xmlns:xlink="http://www.w3.org/1999/xlink" x="0px" y="0px"
	 viewBox="0 0 1263.3 980.3" style="enable-background:new 0 0 1263.3 980.3;" xml:space="preserve">
<g>
	<g>
		<path d="M861.1,108.4c-118-47.2-240.9-93.9-369.9-92.7c-105.6,0.9-210.1,36.7-295.5,98.5c-88.5,64-162.4,159.1-183.9,267.9
			c-11.2,56.6-5.6,114,16.5,167.4c21.7,52.3,55.5,98.3,91.8,141.3c18.7,22.1,38.1,43.7,57.6,65c19.5,21.2,39.6,41.9,61.8,60.3
			c22.7,18.8,47.4,34.9,74.6,46.3c28,11.7,57.6,18.6,87.4,23.3c30.9,4.9,62.2,7.8,93.3,11.1c34.3,3.6,68.5,7.2,102.8,10.8
			c67.7,7.1,135.4,14.3,203.2,21.4c67.7,7.1,135.4,14.3,203.2,21.4c16.7,1.8,33.5,3.5,50.2,5.3c15.5,1.6,31.1,4.1,46.7,4.5
			c14,0.3,27.9-2.6,38.7-12.1c9.3-8.2,14.6-20,18.5-31.5c10-29.8,16.5-61.2,23.4-91.9c7.2-32.1,13.5-64.4,19-96.8
			c10.9-64.7,18.3-130.1,22.2-195.6c2-33.1,3-66.2,3.2-99.4c0.1-30.2-0.8-60.5-4.8-90.5c-7.1-53.3-25.6-103.5-60.6-144.9
			c-61.1-72.3-158-106.9-250.5-112.2c-22.7-1.3-45.5-0.7-68.2,1.6c-9.5,1-9.6,16,0,15c90.2-9.4,187,9.4,261.4,63.1
			c35.7,25.7,64.9,60.3,82.4,100.8c23.9,55.2,25.7,116.9,25.1,176.1c-1.2,127.8-16,255.3-44,380c-6.8,30.3-13.3,61.3-23.1,90.7
			c-3.5,10.5-8.7,21.8-18.6,27.7c-11.8,7-26.7,5-39.7,3.7c-66.1-6.8-132.2-14-198.4-20.9c-131.5-13.9-262.9-27.7-394.4-41.6
			c-59.3-6.3-121.2-10.3-176.5-34.6c-52.3-23-93.2-64-131.2-105.6c-72-78.7-154.3-168-163.1-279.8C12.9,350.6,74.1,244.1,152,169.8
			C226.1,99.1,322,51.9,423.1,36.1c119.3-18.6,238.5,13.2,349.8,54.1c28.2,10.4,56.2,21.4,84.2,32.6
			C866,126.4,869.9,111.9,861.1,108.4L861.1,108.4z"/>
	</g>
</g>
<g>
	<g>
		<path d="M2301.4,162.9c-31.6-86.9-120.7-142.4-209.6-154.3c-49.8-6.7-99,1.2-144.8,22c-54.7,24.9-101.5,64.1-148.7,100.7
			c-53.9,41.8-107.8,83.5-161.7,125.3c-26.8,20.8-53.8,41.3-80.4,62.3c-10.7,8.4-21.1,17.3-29.4,28.2c-8.7,11.3-14.2,24.5-17.1,38.5
			c-5.7,27-4.5,55.7-4.7,83.2c-0.2,26.6,0.1,53.2,2,79.7c3.6,52.2,13,104.7,35.6,152.2c23.2,48.8,60.5,88.1,105.9,116.9
			c46.5,29.5,99,48.6,151.6,64.1c61.4,18.1,124,32.7,186.7,45.4c63.6,12.9,127.8,23.7,192.2,31.4c51.7,6.2,104.2,9.2,156.2,4.2
			c48.6-4.6,97.7-16.3,139.7-42.1c44.7-27.5,75.4-69.6,93.6-118.3c9.6-25.7,15.9-52.4,21.1-79.2c5.3-27.8,9.9-55.8,13.4-83.8
			c7.3-58.7,8.2-120.3-15-175.8c-22.7-54.3-67.4-94.5-98.6-143.5c-25.1-39.3-43.4-82.4-64.2-124c-20-40.1-42.9-80.1-76.2-110.7
			c-16.3-14.9-34.7-27.2-54.9-36.2c-5.2-2.3-9.8,5.4-4.5,7.8c85.4,38.2,120.1,129.1,158.8,207.4c10.2,20.6,20.9,40.9,33.2,60.3
			c14.8,23.2,32.4,44.4,49.4,65.9c17.8,22.5,35.1,45.8,46.8,72.2c11.8,26.5,17.8,55.4,19.8,84.3c4,57.5-5.8,115.8-16.6,172.1
			c-9.8,51.3-24,103.9-56.7,145.8c-62.8,80.4-173.1,94.2-268.3,90.8c-56.9-2-113.5-10.3-169.6-19.5c-63.7-10.4-127-23.2-189.7-38.3
			c-56.1-13.6-112.5-28-166.2-49.3c-48.7-19.3-96.1-45.2-132.7-83.2c-74.6-77.5-84.5-189.2-83.9-291.5c0.1-12.9,0.3-25.8,0.6-38.6
			c0.3-14,0.5-28.1,2.8-41.9c2.4-14.5,7.2-28.4,16.1-40.2c8.4-11.2,19.5-20.3,30.5-28.9c51.6-40.5,103.7-80.4,155.5-120.6
			c26.1-20.2,52.2-40.4,78.3-60.7c24.6-19.1,49-38.5,74.2-56.7c44.1-31.9,92.5-60.1,147-68.4c88.6-13.5,186.6,22.8,242.8,93
			c13.1,16.3,23.6,34.8,30.8,54.4C2294.6,170.7,2303.3,168.4,2301.4,162.9L2301.4,162.9z"/>
	</g>
</g>
</svg>
