<?xml version="1.0" encoding="utf-8"?>
<!-- Generator: Adobe Illustrator 21.0.0, SVG Export Plug-In . SVG Version: 6.00 Build 0)  -->
<svg version="1.1" id="Layer_1" xmlns="http://www.w3.org/2000/svg" xmlns:xlink="http://www.w3.org/1999/xlink" x="0px" y="0px"
	 viewBox="0 0 1263.3 980.3" style="enable-background:new 0 0 1263.3 980.3;" xml:space="preserve">
<style type="text/css">
	.st0{fill:none;stroke:#000000;stroke-width:20;stroke-miterlimit:10;}
</style>
<g>
	<g>
		<path d="M876.9,110.6C758.9,63.5,636,16.7,507,17.9c-105.6,0.9-210.1,36.7-295.5,98.5C123,180.4,49.1,275.5,27.6,384.3
			c-11.2,56.6-5.6,114,16.5,167.4C65.8,604,99.6,650,135.9,693c18.7,22.1,38.1,43.7,57.6,65c19.5,21.2,39.6,41.9,61.8,60.3
			c22.7,18.8,47.4,34.9,74.6,46.3c28,11.7,57.6,18.6,87.4,23.3c30.9,4.9,62.2,7.8,93.3,11.1c34.3,3.6,68.5,7.2,102.8,10.8
			c67.7,7.1,135.4,14.3,203.2,21.4c67.7,7.1,135.4,14.3,203.2,21.4c16.7,1.8,33.5,3.5,50.2,5.3c15.5,1.6,31.1,4.1,46.7,4.5
			c14,0.3,27.9-2.6,38.7-12.1c9.3-8.2,14.6-20,18.5-31.5c10-29.8,16.5-61.2,23.4-91.9c7.2-32.1,13.5-64.4,19-96.8
			c10.9-64.7,18.3-130.1,22.2-195.6c2-33.1,3-66.2,3.2-99.4c0.1-30.2-0.8-60.5-4.8-90.5c-7.1-53.3-25.6-103.5-60.6-144.9
			c-61.1-72.3-158-106.9-250.5-112.2c-22.7-1.3-45.5-0.7-68.2,1.6c-9.5,1-9.6,16,0,15c90.2-9.4,187,9.4,261.4,63.1
			c35.7,25.7,64.9,60.3,82.4,100.8c23.9,55.2,25.7,116.9,25.1,176.1c-1.2,127.8-16,255.3-44,380c-6.8,30.3-13.3,61.3-23.1,90.7
			c-3.5,10.5-8.7,21.8-18.6,27.7c-11.8,7-26.7,5-39.7,3.7c-66.1-6.8-132.2-14-198.4-20.9c-131.5-13.9-262.9-27.7-394.4-41.6
			c-59.3-6.3-121.2-10.3-176.5-34.6c-52.3-23-93.2-64-131.2-105.6c-72-78.7-154.3-168-163.1-279.8C28.8,352.9,89.9,246.3,167.9,172
			C242,101.4,337.8,54.1,439,38.4c119.3-18.6,238.5,13.2,349.8,54.1c28.2,10.4,56.2,21.4,84.2,32.6
			C881.9,128.7,885.8,114.2,876.9,110.6L876.9,110.6z"/>
	</g>
</g>
<g>
	<g>
		<path d="M326,1991.7c-32.1-88.2-122.2-144.5-212.5-156.5c-50.4-6.7-100.1,1.4-146.3,22.4c-55,25-102,64.5-149.3,101.2
			c-53.9,41.8-107.8,83.5-161.7,125.3c-26.8,20.8-53.8,41.3-80.4,62.3c-10.9,8.6-21.4,17.7-29.9,28.8c-8.8,11.5-14.4,25-17.4,39.2
			c-5.7,27.3-4.6,56.2-4.8,84c-0.2,26.6,0.1,53.2,2,79.7c3.7,52.8,13.2,105.7,36,153.7c23.4,49.2,61.1,88.9,106.9,118
			c46.7,29.7,99.5,48.8,152.4,64.4c61.4,18.1,124,32.7,186.7,45.4c63.9,12.9,128.3,23.8,193,31.5c51.7,6.2,104.2,9.2,156.2,4.2
			c49.2-4.7,98.8-16.4,141.3-42.5c45.4-27.9,76.5-70.6,95-120.1c9.6-25.7,15.9-52.4,21.1-79.2c5.4-28,10-56.3,13.5-84.6
			c7.3-58.9,8.2-120.9-15.1-176.6c-22.8-54.6-67.5-95-98.9-144.2c-48.8-76.7-72.2-172.3-140.9-235.3c-16.4-15.1-35.1-27.6-55.5-36.7
			c-8.7-3.9-16.4,9-7.6,13c84.9,38,119.2,128.5,157.8,206.4c10.2,20.6,20.9,40.9,33.2,60.3c14.9,23.4,32.7,44.8,49.9,66.5
			c17.7,22.3,34.7,45.5,46.4,71.6c11.6,26,17.5,54.5,19.4,82.8c4,57.3-5.8,115.2-16.4,171.3c-9.7,50.8-23.7,102.9-55.9,144.5
			c-62.1,79.9-171.9,93.3-266.2,90c-56.6-2-112.9-10.3-168.8-19.4c-63.7-10.4-127-23.2-189.7-38.3c-56.1-13.6-112.5-28-166.2-49.3
			c-48.2-19.1-95.1-44.8-131.4-82.5c-74.1-76.9-83.7-188-83-289.4c0.1-12.9,0.3-25.8,0.6-38.6c0.3-13.7,0.4-27.6,2.7-41.1
			c2.4-14.2,7-27.9,15.8-39.5c8.3-11,19.3-19.8,30-28.3c51.6-40.5,103.7-80.4,155.5-120.6c26.1-20.2,52.2-40.4,78.3-60.7
			c24.4-18.9,48.6-38.2,73.6-56.3c43.9-31.7,92-59.8,146.3-68.1c87.6-13.4,184.4,22.9,239.9,92.3c12.7,15.9,23,34,30,53.1
			C314.8,2004.7,329.3,2000.8,326,1991.7L326,1991.7z"/>
	</g>
</g>
<path class="st0" d="M1610.2,1291.4c-116.9-26.3-235.5-44.3-354.7-53.8c-33-2.6-67.3-4.4-98,8.3c-29.2,12.1-52.1,36.1-74.1,59.4
	c-23.4,24.8-46.8,49.6-70.1,74.4c-67.7,71.9-138.9,150.7-153,250.2c-12.8,90.8,26.4,183.5,87.5,249.8
	c61.1,66.2,141.8,109.3,224.1,142.6c110.1,44.6,225.9,74,343.4,86.7c93.6,10.1,187.8,9.8,281.9,9.4c56.4-0.2,114.7-0.9,166-25
	c24.9-11.7,48-29.3,62-53.7c31.2-54.3,10.2-123.2,12.3-186.4c1.7-52,19.7-102.3,21.8-154.3c4.1-97.8-47.1-187.8-96.6-271.2
	c-16.1-27.2-32.9-55.1-58.1-73.3c-20-14.5-43.9-21.9-67.3-29c-36.8-11.2-73.7-22.5-110.5-33.7c-55.6-17-119.4-32.9-168.4-0.7"/>
</svg>
